<svg height="1em" style="flex:none;line-height:1" viewBox="0 0 24 24" width="1em" xmlns="http://www.w3.org/2000/svg"><title>Yuanbao</title><defs><linearGradient id="yuanbao-fill" x1="2" x2="22" y1="3" y2="21" gradientUnits="userSpaceOnUse"><stop stop-color="#10B981"></stop><stop offset=".55" stop-color="#06B6D4"></stop><stop offset="1" stop-color="#2563EB"></stop></linearGradient></defs><path d="M12 2.2c1.9 0 3.7.54 5.22 1.47.38.23.5.73.26 1.1l-1.18 1.86a.77.77 0 01-1.02.26 6.42 6.42 0 00-3.28-.88 6.02 6.02 0 00-6.08 5.99A6.02 6.02 0 0012 17.99c1.2 0 2.33-.32 3.28-.88.36-.21.82-.09 1.02.26l1.18 1.86c.24.37.12.87-.26 1.1A10.04 10.04 0 0112 21.8C6.48 21.8 2 17.42 2 12S6.48 2.2 12 2.2z" fill="url(#yuanbao-fill)"></path><path d="M12 7.15l4.18 2.42v4.86L12 16.85l-4.18-2.42V9.57L12 7.15zm0 2.05l-2.42 1.4v2.8L12 14.8l2.42-1.4v-2.8L12 9.2z" fill="#fff"></path></svg>
